<svg xmlns="http://www.w3.org/2000/svg" viewBox="0 0 500 500"><g id="freepik--Floor--inject-137"><ellipse id="freepik--floor--inject-137" cx="250" cy="375.06" rx="238.38" ry="120.15" style="fill:#fafafa"></ellipse></g><g id="freepik--Window--inject-137"><g id="freepik--window--inject-137"><path d="M475.13,120.39c0-33.64-22.16-73.71-49.49-89.49-14.47-8.36-27.49-8.23-36.54-1.27-11.25,4.67-18.45,17.61-18.45,36.79V231.89l99,57.15,5.5-3.17Z" style="fill:#e6e6e6"></path><path d="M469.63,289V123.57c0-33.65-22.16-73.72-49.49-89.5s-49.49-1.3-49.49,32.35V231.89Z" style="fill:#f5f5f5"></path><path d="M464.22,123.57V279.66l-88.16-50.9V66.42c0-16.81,5.92-28.41,15.87-32.07a20.6,20.6,0,0,1,7.21-1.24c5.63,0,11.78,1.89,18.29,5.66C443.24,53.66,464.22,91.7,464.22,123.57Z" style="fill:#e0e0e0"></path><polygon points="376.06 228.76 381.65 225.54 464.22 273.22 464.22 279.66 376.06 228.76" style="fill:#ebebeb"></polygon><path d="M464.22,123.57V273.22l-82.57-47.68V63.19c0-13.36,3.75-23.44,10.29-28.84a20.6,20.6,0,0,1,7.21-1.24c5.63,0,11.78,1.89,18.29,5.66C443.24,53.66,464.22,91.7,464.22,123.57Z" style="fill:#fff"></path><polygon points="422.85 255.77 417.43 252.65 417.43 36.81 422.85 36.81 422.85 255.77" style="fill:#f5f5f5"></polygon><path d="M428.26,46.59V252.65l-5.41,3.12V42.27C424.69,43.6,426.49,45,428.26,46.59Z" style="fill:#e0e0e0"></path><polygon points="376.06 166.24 417.43 190.13 417.43 196.48 376.06 172.6 376.06 166.24" style="fill:#f5f5f5"></polygon><polygon points="381.65 163.02 376.06 166.24 417.43 190.13 417.43 183.78 381.65 163.02" style="fill:#ebebeb"></polygon><polygon points="422.85 193.25 464.22 217.13 464.22 223.48 422.85 199.6 422.85 193.25" style="fill:#f5f5f5"></polygon><polygon points="428.44 190.02 422.85 193.25 464.22 217.13 464.22 210.78 428.44 190.02" style="fill:#ebebeb"></polygon><polygon points="376.06 89.86 417.43 113.75 417.43 120.1 376.06 96.22 376.06 89.86" style="fill:#f5f5f5"></polygon><polygon points="381.65 86.64 376.06 89.86 417.43 113.75 417.43 107.4 381.65 86.64" style="fill:#ebebeb"></polygon><polygon points="422.85 116.87 464.22 140.75 464.22 147.11 422.85 123.22 422.85 116.87" style="fill:#f5f5f5"></polygon><polygon points="428.44 113.65 422.85 116.87 464.22 140.75 464.22 134.41 428.44 113.65" style="fill:#ebebeb"></polygon></g></g><g id="freepik--Pictures--inject-137"><g id="freepik--pictures--inject-137"><g id="freepik--Picture--inject-137"><g id="freepik--Frame--inject-137"><polygon points="25.26 134.25 27.77 135.74 79.13 106.08 76.63 104.59 25.26 134.25" style="fill:#fafafa"></polygon><polygon points="76.63 104.59 27.77 132.79 27.77 81.63 76.63 53.44 76.63 104.59" style="fill:#fff"></polygon><path d="M83.85,43.79,23,78.9v65l60.81-35.11Zm-4.72,62.29L27.77,135.74V81.63L79.13,52Z" style="fill:#f0f0f0"></path><polygon points="79.13 106.08 76.63 104.59 76.63 53.44 79.13 51.97 79.13 106.08" style="fill:#e0e0e0"></polygon><polygon points="83.86 43.79 81.31 42.34 20.5 77.45 23.04 78.9 83.86 43.79" style="fill:#fafafa"></polygon><polygon points="20.5 77.45 23.04 78.9 23.04 143.92 20.5 142.46 20.5 77.45" style="fill:#e0e0e0"></polygon></g><g id="freepik--Land--inject-137"><polygon points="74.72 103.06 29.68 129.07 29.68 116.06 40.94 90.06 47.95 96.56 45.43 107.46 60.98 74.19 74.72 90.06 74.72 103.06" style="fill:#f0f0f0"></polygon><path d="M47.53,77.5a7.36,7.36,0,0,0-3.33,5.77c0,2.12,1.49,3,3.33,1.92a7.35,7.35,0,0,0,3.33-5.77C50.86,77.3,49.37,76.44,47.53,77.5Z" style="fill:#f0f0f0"></path></g></g><g id="freepik--picture--inject-137"><g id="freepik--frame--inject-137"><polygon points="46.24 211.13 48.74 212.62 100.11 182.97 97.6 181.47 46.24 211.13" style="fill:#fafafa"></polygon><polygon points="97.6 181.47 48.74 209.68 48.74 158.51 97.61 130.33 97.6 181.47" style="fill:#fff"></polygon><path d="M104.83,120.68,44,155.79v65l60.81-35.11ZM100.11,183,48.74,212.62V158.51l51.37-29.65Z" style="fill:#f0f0f0"></path><polygon points="100.11 182.97 97.6 181.47 97.61 130.33 100.11 128.86 100.11 182.97" style="fill:#e0e0e0"></polygon><polygon points="104.83 120.68 102.29 119.22 41.48 154.33 44.02 155.79 104.83 120.68" style="fill:#fafafa"></polygon><polygon points="41.48 154.33 44.02 155.79 44.02 220.8 41.48 219.35 41.48 154.33" style="fill:#e0e0e0"></polygon></g><g id="freepik--land--inject-137"><polygon points="95.7 179.95 50.65 205.95 50.65 192.95 61.91 166.94 68.93 173.44 66.41 184.34 81.96 151.08 95.7 166.94 95.7 179.95" style="fill:#f0f0f0"></polygon><path d="M68.5,154.38a7.38,7.38,0,0,0-3.33,5.78c0,2.12,1.5,3,3.34,1.92a7.36,7.36,0,0,0,3.33-5.77C71.84,154.18,70.34,153.32,68.5,154.38Z" style="fill:#f0f0f0"></path></g></g></g></g><g id="freepik--Shadows--inject-137"><ellipse id="freepik--Shadow--inject-137" cx="389.45" cy="376.1" rx="44.06" ry="25.44" style="fill:#e0e0e0"></ellipse><ellipse id="freepik--shadow--inject-137" cx="214.54" cy="357.57" rx="125.35" ry="72.37" style="fill:#e0e0e0"></ellipse><path id="freepik--shadow--inject-137" d="M24,380.92,32.43,376a4.09,4.09,0,0,1,3.7,0L70.66,396a1.13,1.13,0,0,1,0,2.14l-1.45.83,19.4,11.2,23.86-13.77a6.49,6.49,0,0,1,3.26-.87,6.67,6.67,0,0,1,5.56,2.93l26.91,40.4c1.27,1.91,1.05,3.22.64,4A3,3,0,0,1,146,444.3a6.69,6.69,0,0,1-1.42-.17l-74.4-16.52c-2.57-.57-3.15-1.94-3.27-2.7s0-2.25,2.31-3.57l14.16-8.17L64,402l-1.77,1a4.11,4.11,0,0,1-3.71,0L24,383.06A1.13,1.13,0,0,1,24,380.92Z" style="fill:#e0e0e0"></path></g><g id="freepik--Trowel--inject-137"><g id="freepik--trowel--inject-137"><path d="M30.88,358.72a3.79,3.79,0,0,0,1.65,3.52L61.93,379a7.66,7.66,0,1,0,7.57-13.32L40.12,348.93a3.76,3.76,0,0,0-3.87.37A12,12,0,0,0,30.88,358.72Z" style="fill:#869ADC"></path><path d="M30.88,358.72a12.11,12.11,0,0,1,3.42-7.84c-2.2,3.14-2.5,6.14,4.1,10s21.23,12.2,24.06,13.8,8.26,3.33,11.08-1.71a7.4,7.4,0,0,1-.94,3.29A7.78,7.78,0,0,1,61.93,379l-29.4-16.73A3.79,3.79,0,0,1,30.88,358.72Z" style="opacity:0.15"></path><path d="M71,372.3a5.8,5.8,0,0,0-2.6,4.56,1.83,1.83,0,0,0,.8,1.7l2.21,1.24,3.66-6.44-2.2-1.23A1.82,1.82,0,0,0,71,372.3Z" style="fill:#455a64"></path><path d="M70.65,378.11c0,1.67,1.19,2.34,2.63,1.5a5.78,5.78,0,0,0,2.59-4.56c0-1.67-1.19-2.34-2.63-1.49A5.78,5.78,0,0,0,70.65,378.11Z" style="fill:#263238"></path><path d="M71.94,377.76a3.7,3.7,0,0,1,1.67-2.93,1.13,1.13,0,0,1,1.25-.08l5.4,3.12a16,16,0,0,1,8,13.8v4.64A14.69,14.69,0,0,0,95.55,409l4.36,2.51-2.38,4.12-4.36-2.52a19.45,19.45,0,0,1-9.7-16.8v-4.64A11.2,11.2,0,0,0,77.88,382l-5.44-3.14h0A1.19,1.19,0,0,1,71.94,377.76Z" style="fill:#455a64"></path><path d="M70,420.87l27.16-8.75,16.1-16.23a5.14,5.14,0,0,1,6.75,1.58l26.92,40.4a3.49,3.49,0,0,1,.69,1.82c0,.25,0,1.2,0,1.44,0,1-1,1.5-2.68,1.11L70.51,425.72c-1.38-.3-2.08-.88-2.08-1.56,0-.25,0-1.22,0-1.46C68.43,422.12,68.94,421.47,70,420.87Z" style="fill:#263238"></path><path d="M113.24,395.89l-16.1,16.23L70,420.87c-2.27,1.31-2,2.84.53,3.41L144.9,440.8c2.56.56,3.46-.75,2-2.93L120,397.47A5.14,5.14,0,0,0,113.24,395.89Z" style="fill:#455a64"></path><path d="M147.24,440.52a2.59,2.59,0,0,1-2.34.28L70.51,424.28c-2.57-.57-2.8-2.1-.53-3.41l27.16-8.75,50.1,28.4Z" style="fill:#37474f"></path></g></g><g id="freepik--Pot--inject-137"><g id="freepik--pot--inject-137"><path d="M349.86,340.48l79.21-.07-8.17,34.12h0c-.62,4.12-3.65,8.14-9.1,11.29-12.31,7.12-32.29,7.13-44.61,0-5.87-3.39-8.91-7.78-9.19-12.22Z" style="fill:#37474f"></path><path d="M359.53,363.86a34.21,34.21,0,0,1-4.75-3.32l-4.47-18.23a31.9,31.9,0,0,0,8,6.37c16.71,9.63,43.49,9.86,60.77.74l-2-8.13.61-.85h11.37l-8.16,34.1h0c-.62,4.12-3.65,8.14-9.1,11.29-8.77,5.07-21.42,6.52-32.43,4.37,19.73,1.46,33.27-7.18,35.3-15.13.8-3.18,2.21-10.2,2.21-10.2C400.4,373.24,375.29,372.93,359.53,363.86Z" style="opacity:0.1"></path><path d="M345.73,330.39a16.71,16.71,0,0,0,2.65,6.15,29.3,29.3,0,0,0,9.94,8.82c17.2,9.92,45.09,9.9,62.28,0a29.28,29.28,0,0,0,9.93-8.83,16.94,16.94,0,0,0,2.63-6.16h0c1.53-7.46-2.68-15.24-12.6-20.95-17.2-9.93-45.08-9.91-62.27,0C348.39,315.15,344.2,322.93,345.73,330.39Z" style="fill:#455a64"></path><path d="M348.38,336.54a29.3,29.3,0,0,0,9.94,8.82c17.2,9.92,45.09,9.9,62.28,0a29.28,29.28,0,0,0,9.93-8.83,16.94,16.94,0,0,0,2.63-6.16h0l-1.95,13.43c-.89,5.4-4.91,10.66-12.08,14.81-16.39,9.46-42.94,9.48-59.34,0-7.08-4.09-11.1-9.28-12.07-14.61l-.1-.69-1.9-12.92A16.71,16.71,0,0,0,348.38,336.54Z" style="fill:#37474f"></path><path d="M363.49,312.4c14.33-8.28,37.56-8.3,51.89,0,8.11,4.68,11.63,11,10.57,17.11-.81,4.69-4.34,9.25-10.55,12.84-14.32,8.29-37.55,8.3-51.89,0-6.21-3.59-9.74-8.15-10.56-12.82C351.87,323.42,355.38,317.1,363.49,312.4Z" style="fill:#37474f"></path><path d="M366.24,343.78c14.19,6.7,35,6.32,48.49-1.11C400.55,336,379.72,336.35,366.24,343.78Z" style="fill:#263238"></path></g></g><g id="freepik--Soil--inject-137"><g id="freepik--soil--inject-137"><path d="M469.53,390.26a8.15,8.15,0,0,0-5.64-2.15c2.17-3.86.49-9.24-3.53-11.42a6.63,6.63,0,0,0-4.86-.27,16.55,16.55,0,0,0-4.09-10.52,14.36,14.36,0,0,0-14.51-4.17,12.48,12.48,0,0,0-8.66,12,8.55,8.55,0,0,0-12.33,9.41c-.77-3.46-9.44-2.83-11.41-1.62a7.88,7.88,0,0,0-3.68,6,7.59,7.59,0,0,0-11.37,7.59,11.58,11.58,0,0,0-7.66-.11c-2.42.95-4.4,3.32-4.29,5.92a8.1,8.1,0,0,0-4.39.89c-1.28.81-2.05,2.6-1.27,3.89a4,4,0,0,0,2.69,1.5,15.42,15.42,0,0,0,6.31,0c1.06,4.42,6.81,6.17,8.77,6.42,8.67,1.11,11.47-1.74,13.37-4.15,2.23,4,7.48,6.32,12.06,6.65a13.06,13.06,0,0,0,11.81-6.9c.78,5.11,8.36,7.42,13.73,7.63,4,.15,9.69-2.8,10.16-7.24,5.22,3.46,15.82.59,14.68-6.79C471.69,401.65,474.34,394.9,469.53,390.26Z" style="fill:#b16668"></path><path d="M469.53,390.26a8.15,8.15,0,0,0-5.64-2.15c2.17-3.86.49-9.24-3.53-11.42a5.44,5.44,0,0,0-2.28-.59,7.28,7.28,0,0,1-3.5,12.17c3.76.3,6,5.34,4,8.55s-6.91,3.83-9.92,1.57c.38,2.22-.31,4.83-2.29,5.91s-5.07-.46-4.77-2.7c-3.81,3.91-11.18,3.28-14.28-1.22a12.7,12.7,0,0,1-9.24,7,14.68,14.68,0,0,1-11.37-2.88,1.89,1.89,0,0,0-3.13,0,15.15,15.15,0,0,1-19.69.17,2.61,2.61,0,0,0-1.47-.85,2.68,2.68,0,0,0-1.36.47,9.69,9.69,0,0,1-8.2.62,8.35,8.35,0,0,1-1.31-.72,2.35,2.35,0,0,0,.28,1.55,4,4,0,0,0,2.69,1.5,15.42,15.42,0,0,0,6.31,0c1.06,4.42,6.81,6.17,8.77,6.42,8.67,1.11,11.47-1.74,13.37-4.15,2.23,4,7.48,6.32,12.06,6.65a13.06,13.06,0,0,0,11.81-6.9c.78,5.11,8.36,7.42,13.73,7.63,4,.15,9.69-2.8,10.16-7.24,5.22,3.46,15.82.59,14.68-6.79C471.69,401.65,474.34,394.9,469.53,390.26Z" style="fill:#9a4a4d"></path><path d="M371.05,412a3.23,3.23,0,0,0-1.11.42,4.67,4.67,0,1,0-1.29,4.31,3.32,3.32,0,1,0,2.4-4.73Z" style="fill:#b16668"></path></g></g><g id="freepik--Character--inject-137"><g id="freepik--character--inject-137"><g id="freepik--Bottom--inject-137"><path d="M235,395l20.08-27.19,25.84,23.87-44.28,37.53s-17.5-5.33-18.56-15.71S229.48,397.22,235,395Z" style="fill:#f0997a"></path><path d="M214,400.35c-5.7.16-8.22,1.64-10.27,6.24s-1.52,9.51-3.84,15.88-5.87,8.94-9.44,17.19-3.65,22.88.57,32.23,8.35,13.8,19.55,14.12Z" style="fill:#263238"></path><path d="M235,395l-2.43,3.13a27.79,27.79,0,0,0,7,14.19c6,6.47,9.17,6.67,9.17,6.67l2-1.68s.82,1.09-2.35,3.63a49.13,49.13,0,0,0-10.71,10.78c-4.52,6.08-10,21.41-12.42,32.79s-2.37,19.85-11.39,21.44-16.08-8.3-19.41-16.82-2.84-20.34-.16-28.39,9.74-12.22,10.39-22.08c.48-7.25,2.87-14,6.5-16.86s10-2.51,14.55-4.06S233.5,393.71,235,395Z" style="fill:#455a64"></path><path d="M223.85,471.47c-3.45-12.18-21.53-19.07-31.75-16.14a39,39,0,0,0,2.31,13.75c3.33,8.52,10.38,18.4,19.41,16.82C220.86,484.66,222.37,479.21,223.85,471.47Z" style="fill:#fafafa"></path><path d="M248.34,420.89c3.17-2.54,2.35-3.63,2.35-3.63l-2,1.68s-3.13-.2-9.17-6.67a27.79,27.79,0,0,1-7-14.19L235,395c-1.5-1.24-4.71,1.18-9.31,2.74s-10.92,1.22-14.55,4.06a15.85,15.85,0,0,0-4.56,7.14l28.62,7.37s-4.95,12.08-8.78,23.45c-4.7,14-5.08,32.09-13.37,36.42-8,4.18-19.65-13.59-20.55-27.47-.88,6.8-.43,14.43,1.91,20.42,3.33,8.52,10.38,18.4,19.41,16.82s9-10.07,11.39-21.44,7.9-26.71,12.42-32.79A49.13,49.13,0,0,1,248.34,420.89Z" style="opacity:0.1"></path><path d="M226.94,459.91a14.7,14.7,0,0,0-1.39-2.59A22,22,0,0,0,222,453a23.26,23.26,0,0,0-10.52-6c-.36-.07-.45.66-.21.82,3.19,2.11,6.63,3.83,9.43,6.47a22.75,22.75,0,0,1,3.22,3.71,18.33,18.33,0,0,1,1.25,2.2,5.38,5.38,0,0,0,1.55,2.34.28.28,0,0,0,.31-.05C227.69,461.8,227.24,460.71,226.94,459.91Z" style="fill:#fafafa"></path><path d="M229.32,451.55a19.16,19.16,0,0,0-6.16-8.09,27.17,27.17,0,0,0-3.78-2.59,19.87,19.87,0,0,0-2.08-1,10.11,10.11,0,0,0-2.43-.57c-.3-.05-.45.58-.21.72,1.4.8,2.8,1.64,4.19,2.47a25.33,25.33,0,0,1,3.72,2.72,30.78,30.78,0,0,1,3.07,3.08c1.1,1.3,2.06,2.7,3.13,4C229.14,452.75,229.41,451.81,229.32,451.55Z" style="fill:#fafafa"></path><path d="M231.11,438.35a20.71,20.71,0,0,0-3.46-3.9,24.93,24.93,0,0,0-4.56-3.2,11.79,11.79,0,0,0-4.79-1.88c-.41,0-.52.78-.25,1a42.62,42.62,0,0,0,4.62,2.71,28.72,28.72,0,0,1,4.12,3,19.28,19.28,0,0,1,3,3.29c.41.58.76,1.2,1.14,1.8a29.38,29.38,0,0,0,1.52,2.54c.25.31.54-.19.55-.41A8.41,8.41,0,0,0,231.11,438.35Z" style="fill:#fafafa"></path><path d="M235.53,429.55c-1.07-1.27-2.18-2.52-3.36-3.68a24.5,24.5,0,0,0-3.9-3.14,9.23,9.23,0,0,0-4.33-1.75c-.42,0-.48.75-.19.95,1.31.84,2.71,1.56,4,2.47a31.13,31.13,0,0,1,3.52,3.06c1,1,1.94,2,2.84,3.08a13.15,13.15,0,0,1,1.26,1.61,6.06,6.06,0,0,1,.41.85c.16.42.44.77.62,1.18s.44.44.66.13C238.18,432.68,236.59,430.8,235.53,429.55Z" style="fill:#fafafa"></path><path d="M215.56,282.37s76.63-3,106,3.08c30,6.25,23.65,39.75,14.63,53.64-20.36,31.36-63.71,60.41-63.71,60.41s-22.47-7.92-24.79-24.28L261,354.9l-38.15,4.88-15.93-16.66-8-8.14Z" style="fill:#869ADC"></path><path d="M215.56,282.37c-1.8,0,75.92-3,106,3.08s23.65,39.75,14.63,53.64c-20.36,31.36-63.71,60.41-63.71,60.41s-22.47-7.92-24.79-24.28L261,354.9l-38.15,4.88-15.93-16.66-8-8.14Z" style="opacity:0.2"></path><path d="M250.82,376.39s14.46,9.79,21.34,13.35a121.21,121.21,0,0,0,11.76,5.4L275,421.57,238,409.63Z" style="fill:#ffbda7"></path><path d="M278.7,424.14s7.28,4.31,9.26,5,7,1.59,10.52,3.52,17.25,9.6,25.7,10.49,23.2-1.1,28.05-14.83Z" style="fill:#263238"></path><path d="M277.57,392.4c2.6,1.4,3.1,10.93.95,16.63-1.65,4.4-6.45,11.05-9.22,10.69l-2.62-.84s0,1.89,4.24,2.93,17.09,5.46,22,6.81,14.75,7.44,21.05,9.5,12.21,5.1,23.31,2,19.45-13.82,16.25-23.88-13.68-13.29-22.42-14.87-24.11-.93-33.65-3.57a105.89,105.89,0,0,1-18.51-6.74c-2.89-1.43-4.69-.25-4.69-.25Z" style="fill:#455a64"></path><path d="M319.2,402c-2.53,2.37-4,6-4.95,9.23-1.09,3.61-2.09,7.66-1.74,11.44,0,.37.55,1.06.85.45a18,18,0,0,0,1.25-4.94c.32-1.7.61-3.41,1-5.09a35.14,35.14,0,0,1,1.55-4.68,41.27,41.27,0,0,1,2.86-5.22C320.36,402.68,319.84,401.4,319.2,402Z" style="fill:#fafafa"></path><path d="M311.33,402.07c-.08-.35-.36-.83-.79-.76-.85.16-1.14.81-1.55,1.51s-.84,1.5-1.2,2.28a32.47,32.47,0,0,0-1.69,4.6,38.6,38.6,0,0,0-1.06,4.74c-.28,1.86-.58,3.71.1,5.5.1.27.51.8.82.38,1-1.3.78-3,1-4.58A32.92,32.92,0,0,1,308,411a37.06,37.06,0,0,1,1.73-4.46c.35-.76.71-1.52,1.09-2.26A2.87,2.87,0,0,0,311.33,402.07Z" style="fill:#fafafa"></path><path d="M302,400.21a6.29,6.29,0,0,0-1.4,2.1c-.35.67-.69,1.34-1,2A37.65,37.65,0,0,0,298,409c-.89,3-1.73,6.36-1.18,9.51.08.45.73,1.15,1,.44a21,21,0,0,0,1-4.45,39.2,39.2,0,0,1,1.07-4.53,42.59,42.59,0,0,1,1.54-4.22c.28-.67.56-1.35.87-2a8.22,8.22,0,0,0,.9-2.27C303.26,400.87,302.65,399.69,302,400.21Z" style="fill:#fafafa"></path><path d="M294.5,397.51a25,25,0,0,0-5.85,19.18c0,.31.38.26.46,0,.91-3,1.69-6.12,2.7-9.13s2.39-5.91,3.65-8.83C295.69,398.2,295.15,396.79,294.5,397.51Z" style="fill:#fafafa"></path><path d="M353.51,416.23c-2.53-8-9.64-11.64-16.83-13.62-10.8,5.32-14.27,33.08-12,38.57a30,30,0,0,0,12.55-1.07C348.35,437,356.71,426.29,353.51,416.23Z" style="fill:#fafafa"></path><path d="M337.26,440.11c8.78-2.47,15.84-9.69,16.82-17.58A22.74,22.74,0,0,1,341.83,434c-9.25,3.75-28.52-2.75-36.82-7.69-6.74-4-18-7-28.77-12.86-2.15,3.39-5,6.49-6.94,6.24l-2.62-.84s0,1.89,4.24,2.93,17.09,5.46,22,6.81,14.75,7.44,21.05,9.5S326.16,443.22,337.26,440.11Z" style="opacity:0.1"></path><path d="M258.58,378.59c-17.74-14.68-43.44-37.94-54.84-43.43l-.89-.41c8-12.78,13.87-24.33,12.71-52.38l-118.07-.23s-10,32.42-3.66,53.44c7.57,24.91,24.73,35,43.76,43.49,19.71,8.82,42.68,12.61,42.68,12.61,4.92,4.43,12.1,8.13,21.24,10.8,11.53,3.39,33.3,7.83,45.87,11.15C257,405.26,261.1,380.68,258.58,378.59Z" style="fill:#869ADC"></path><path d="M258.58,378.59c-17.74-14.68-43.44-37.94-54.84-43.43l-.89-.41c8-12.78,13.87-24.33,12.71-52.38l-118.07-.23s-10,32.42-3.66,53.44c7.57,24.91,24.73,35,43.76,43.49,19.71,8.82,42.68,12.61,42.68,12.61,4.92,4.43,12.1,8.13,21.24,10.8,11.53,3.39,33.3,7.83,45.87,11.15C257,405.26,261.1,380.68,258.58,378.59Z" style="opacity:0.2"></path><g style="opacity:0.30000000000000004"><path d="M271.34,332.62a275.71,275.71,0,0,0-20.09,23.51L261,354.9c15.15-23.88,18.68-31,37.46-39.86C298.46,315,285.73,317.36,271.34,332.62Z"></path><path d="M175.24,384s-.53,2.6,1,7.07c2.5.4,4,.6,4,.6l.11.09A36.49,36.49,0,0,1,175.24,384Z"></path><path d="M221.93,347.85c7.47,5.66,12.65,10.43,12.65,10.43l6.64-.85S227.47,346.19,217,337.77c-1.43-1.16-6.48-5.22-7.76-6.38,5.64-12.91,4.88-23.35,4.88-23.35-1.31,8.19-5.23,16.48-8.34,21.85-4.35-2.27-8.2-2.68-15-2.85-11.9-.29-46.39-1-46.39-1s32.63,3,49.33,6.08a34.64,34.64,0,0,1,9.15,2.64C211.5,339.13,217.9,344.79,221.93,347.85Z"></path></g></g><g id="freepik--Top--inject-137"><g id="freepik--top--inject-137"><g id="freepik--Chest--inject-137"><path d="M200,146.15c17.84,3.58,28.44,12.6,24.75,36.84s-18.25,84.73-18.25,84.73l-36.16-10.1Z" style="fill:#e0e0e0"></path><path d="M229.51,248.51l-19.09-12.06s-16.73-3.35-22.95,9.88-3.15,18-3.15,18L216,274.37Z" style="fill:#ffbda7"></path><path d="M214.73,235.47c18.55-12.84,17.15-33.06,14.69-41.52C224.48,177,200,146.15,200,146.15a181.27,181.27,0,0,0-37.47-3.82c-18.08.1-38.66,9.54-38.66,9.54,3.16,8.62,9.47,18.55,7,28.23-5.83,23-26.23,36.25-26.23,36.25s2.24,20.2,2.56,26.3c.22,4.14-.17,14.25-3.74,21.27-6.85,13.47-9.66,27.95-11,32.3a4.76,4.76,0,0,0,2.14,5.53C133.72,324.39,199,321.05,219,292.09c-1.63-9.8-5.23-20.71-6.34-30S211.85,249.81,214.73,235.47Z" style="fill:#fafafa"></path><path d="M191.51,183.81a141,141,0,0,1,3.86,31.36,101.33,101.33,0,0,1-1.16,15.68c-.42,2.59-1.05,5.09-1.56,7.78s-.76,5.29-1,7.94c-.85,10.61-1.07,21.21-1,31.81.09,5.3.22,10.6.62,15.9.3,2.69.78,5.24.87,7.89s.22,5.41-1.28,7.64c1.63-2.16,1.63-5.05,1.74-7.65s-.29-5.35-.42-7.94c-.22-5.26-.19-10.56-.11-15.84.19-10.56.4-21.15,1.38-31.64.22-2.63.51-5.24.91-7.82s1.08-5.17,1.48-7.81a87.09,87.09,0,0,0,.91-16A119.52,119.52,0,0,0,191.51,183.81Z" style="fill:#e0e0e0"></path><path d="M200,146.15s7.69,9.69,15.32,21.19c-21.72,2.31-61.09,6.88-86.93,9.41.63-9.38-1.8-17.46-4.52-24.88,0,0,20.58-9.44,38.66-9.54A181.27,181.27,0,0,1,200,146.15Z" style="fill:#f0f0f0"></path><path d="M186.55,238.29s-11.18,9.39-29.81,2.33-19.53-22.35-19.53-22.35-4.87,18.48,17.42,26.83C176.58,253.33,186.55,238.29,186.55,238.29Z" style="fill:#e0e0e0"></path></g><g id="freepik--Head--inject-137"><path d="M145.72,30.65a11.82,11.82,0,0,0-4.66,7A18.67,18.67,0,0,0,118.18,64c-3,1.79-5.74,4.53-6.51,8s1,7.56,4.35,8.61a12.17,12.17,0,0,0,11.8,19.89c1.06-.24,2.06-.42,3.16-.77a17.78,17.78,0,0,0,1.12,2.27,14,14,0,0,0,24,.91,1.63,1.63,0,0,1,2.64-.57,12.84,12.84,0,0,0,17.76-10.43c0,.36,5-1.79,5.38-2.09a12.21,12.21,0,0,0,3.9-4.9,10.84,10.84,0,0,0,.27-7.47,14,14,0,0,0-1.64-3.47c-.14-.23-1.89-2.4-2.14-2.28,3.22-1.59,4.58-5.71,3.86-9.22S183,56,180.26,53.61A8.51,8.51,0,0,0,184,43.33a11.59,11.59,0,0,0-2.38-3.55A16.9,16.9,0,0,0,174.23,35a12.36,12.36,0,0,0-8.7.47c-.57-4.05-5.1-5.92-8.63-6.67A14.31,14.31,0,0,0,145.72,30.65Z" style="fill:#37474f"></path><path d="M165.46,42.23a18.09,18.09,0,0,0-8.55,2.66c-4.68,2.62-9,6.79-9.65,12.11a6,6,0,0,0,.86,4.34,6.57,6.57,0,0,0,3.64,2.18,19,19,0,0,0,7.59.48,17.71,17.71,0,0,0,11.09-5.54,13.32,13.32,0,0,0,3.1-11.06C172.87,43.8,168.86,42.2,165.46,42.23Z" style="fill:#869ADC"></path><path d="M236.92,66.8c-2.81-6.46-7-8.32-10.31-8.8-3.2-6.56-17.13-14.89-24-16.58C176.07,34.9,165.12,47.1,162.82,52,149.56,51.59,135,72.23,144.2,99.62c4,11.86,10.69,25.68,10.74,32.14l15.74,0s3.91-18.21,23.49-22.82c19.35-4.55,30.26-7.53,33.58-10.9C240.6,88.28,240.26,74.44,236.92,66.8Z" style="fill:#37474f"></path><path d="M227.8,83c0,2.88-.13,8-.34,10.86a111.1,111.1,0,0,1-2.31,17.55c-5.68,23.65-12.71,25.38-16.88,27-3.51,1.36-8.89,2-16.34.5l-2.46,12.37s8.72,12.62,2,32.56c-8.78-6.19-15.44-17.05-15.44-17.05-14.76-12.37-24.54-20.47-24.54-20.47l6.72-28.91s-7.39,4.19-13.53-4.18c-4.76-6.5-3.84-17.92,2.35-21.51s12.46-1,14.58,7.19c1.51,5.86,6.33,2.2,6.27-3.92s7-7.33,9.43-10.07c8-8.84.57-11.79,9.47-17.6,4.94-3.22,15-2.31,22,4.63C215.06,66.78,227.91,66.8,227.8,83Z" style="fill:#ffbda7"></path><path d="M190.49,114.82,203,120.4a6.6,6.6,0,0,1-8.82,3.87A7.41,7.41,0,0,1,190.49,114.82Z" style="fill:#b16668"></path><path d="M190.19,119.43a7.1,7.1,0,0,0,3.94,4.84,6.32,6.32,0,0,0,4.07.36,5.59,5.59,0,0,0-8-5.2Z" style="fill:#f28f8f"></path><path d="M196.68,95.76a3.5,3.5,0,1,1-3-4A3.55,3.55,0,0,1,196.68,95.76Z" style="fill:#263238"></path><path d="M222,98.39a3.44,3.44,0,1,1-2.95-4A3.5,3.5,0,0,1,222,98.39Z" style="fill:#263238"></path><path d="M196.75,82.92l-9.1,2.16a5.11,5.11,0,0,1,3.69-5.91A4.49,4.49,0,0,1,196.75,82.92Z" style="fill:#263238"></path><path d="M224.1,91,216,86.49a4.34,4.34,0,0,1,6.1-2.06A5.12,5.12,0,0,1,224.1,91Z" style="fill:#263238"></path><polygon points="204.76 92.01 205.19 114.55 217.29 111.03 204.76 92.01" style="fill:#f0997a"></polygon><path d="M191.93,138.88c-14.5-3.75-26-12.62-28.2-22,.16.93-1.56,7.82,5.3,15.15,7.58,8.11,22,11.54,22,11.54Z" style="fill:#f0997a"></path></g><path d="M191.51,183.81s-6.27-3.38-12-17.26c-2.8-6.75-9.27-11.61-15.72-18A62.07,62.07,0,0,1,153.93,136l1-4.54s-2.79.33-5.17,4.39-8.26,9.9-8.26,9.9c1.55,12.64,22,26.62,25.43,33.28,8.12-2.66,10.83-8.2,10.83-8.2S185.21,181.05,191.51,183.81Z" style="fill:#e0e0e0"></path><path d="M191.7,140.05l-2.23,11.2s3.65,10,3.76,17.71a64,64,0,0,1-1.72,14.85s3.5-8.48,4.43-12,8.08,2.6,8.08,2.6.59-5.49-1.74-15.22a52.56,52.56,0,0,0-5.4-13.44,17.89,17.89,0,0,0-5.18-5.7Z" style="fill:#e0e0e0"></path></g><g id="freepik--Arm--inject-137"><path d="M123.63,153c-9.08,4.2-17.22,4.82-24.41,19.29-8.58,17.26,1.74,69.94,6.54,91.94,3.81,17.43,4,22.18,21.45,25.28,33.28,5.92,49.59,6.42,64.3,8.56l5.2-26.54-55.16-17.12-5.94-50.26S134,163,123.63,153Z" style="fill:#ffbda7"></path><path d="M123.85,151.87c-11.26,3.42-28,9.8-30.56,30.64-3,24.07,12.3,86.83,12.3,86.83s16.76-18.2,36-15l1,.33s-2.68-35.36-4.73-56.37S133.09,161.44,123.85,151.87Z" style="fill:#e0e0e0"></path><path d="M102.47,260.59a23,23,0,0,1,1.11,6c0,2.38.64,3.71,3.78,4.84a8.52,8.52,0,0,1,2.26-5.32,19.51,19.51,0,0,1,4.95-3.63A72.07,72.07,0,0,1,129,256.82a51.41,51.41,0,0,1,16.05-1.35,5.27,5.27,0,0,0-.2-6.52,5.69,5.69,0,0,1-.92-1.6,7.17,7.17,0,0,1,.24-2.67,5.25,5.25,0,0,0-2-4.83,8.79,8.79,0,0,0-3-1c-7.74-1.34-15.73.18-23.13,2.82a30.59,30.59,0,0,0-5.33,2.37c-3,1.76-6.38,4.2-8.15,7.24a8.57,8.57,0,0,0-.92,6.93c.2.6.49,1.17.69,1.76Q102.4,260.29,102.47,260.59Z" style="fill:#f0f0f0"></path></g><g id="freepik--Hand--inject-137"><g id="freepik--hand--inject-137"><path d="M229.51,248.51a61.88,61.88,0,0,0,12.43,6.2c2.28.68,10.22,2.88,15.85,2.66s11,1.25,15.3,2.16,11,.79,12.07,1.93.31,4.67-4,5.47a43.13,43.13,0,0,1-12.61.22c-3.18-.45-3.62-.43-2,.82s9.25,6.23,11,6.8,9.84,4.56,12.68,5,9.67-.11,11.83,1.93,3.19,4.21-1.25,4.67-9.44.68-9.44.68c3.35,1.48,5.43,1.73,9,3.4,4.34,2.05,6.09,4.33,5.45,6.7-.42,1.59-3.1,1-7.45.29A102.42,102.42,0,0,1,287,294.52s4.42,2.24,6.63,3.65,2.85,3.84,2.35,5.12-2.42,1.43-4.13.86-3.71-1.07-3.71-1.07,0,1.53-2.4,1.62A35.15,35.15,0,0,1,275,303.19c-3.85-1.35-7.06-2.82-10.68-3.68S247.4,295,242,291.18s-12.75-11.12-16-12.69-10-4.12-10-4.12-5.27-6.05,0-15A23.16,23.16,0,0,1,229.51,248.51Z" style="fill:#ffbda7"></path><path d="M291.3,287.06c-1.48-.3-3-.61-4.41-1.05a15.23,15.23,0,0,1-4.2-1.89,76.77,76.77,0,0,1-7.35-5.25,78.11,78.11,0,0,1,7.84,4.52C285.58,285,288.55,285.8,291.3,287.06Z" style="fill:#f0997a"></path><path d="M287,294.52a16.68,16.68,0,0,1-4.28-1.77c-1.35-.74-2.63-1.6-3.9-2.47-2.54-1.7-5-3.46-7.44-5.39,2.72,1.43,5.34,3,7.93,4.68,1.29.83,2.53,1.71,3.8,2.54A45.76,45.76,0,0,0,287,294.52Z" style="fill:#f0997a"></path><path d="M288.16,303.08a2.83,2.83,0,0,0-.37-1.61,3.46,3.46,0,0,0-1.22-1.09,14.66,14.66,0,0,0-3.13-1.27c-1.09-.35-2.17-.72-3.26-1.09A14.45,14.45,0,0,1,277,296.6c-1.95-1.23-3.89-2.45-5.8-3.74l-2.86-1.92c-.94-.67-1.89-1.32-2.81-2,1,.52,2,1.09,3,1.64l3,1.71c2,1.14,3.93,2.34,5.88,3.54a14.37,14.37,0,0,0,3,1.42c1.07.41,2.15.8,3.21,1.24a15,15,0,0,1,3.14,1.54,3.87,3.87,0,0,1,1.18,1.33A2.66,2.66,0,0,1,288.16,303.08Z" style="fill:#f0997a"></path><path d="M264.84,272.48a23,23,0,0,1-10.81.12,23.72,23.72,0,0,1-5.18-1.73,14.16,14.16,0,0,1-4.42-3.15,20.7,20.7,0,0,0,4.7,2.52,33.05,33.05,0,0,0,5.09,1.5,38.75,38.75,0,0,0,5.26.76A34.26,34.26,0,0,0,264.84,272.48Z" style="fill:#f0997a"></path></g><g id="freepik--hand--inject-137"><path d="M188.66,269.88c9.45,1.49,17.25,4.2,20.83,5.18s17.89,3.25,22.28,6.83,13.82,9.26,16.42,10.24,10.67,4.71,12.3,4.87,9.26.07,11.76,2.46c2.1,2,1,4.35-1.41,4.43-3.12.11-10.3.6-10.3.6l3.78,2.15s4.71.8,7,2.11,3.77,3,3.26,4.71-2.75,1.45-6.09,1-5.51-.5-7.68-1.16-3.78-1-3.78-1c2.31,1.33,6.82,2.46,8.78,3.77a3.86,3.86,0,0,1,1.52,5c-.8,1.52-9.57,0-9.57,0s.14,2.1-2.83,2a74.09,74.09,0,0,1-9.21-.65c-1.16-.29-19.86-10.44-19.86-10.44s3.11,3.48,4,6,.15,5-.94,5.51-2.32.14-5.36-1.74-6.46-4.43-10.16-6.24-8-4.38-10.92-9.6-3.44-6.54-7.65-7.35c-5.56-1.06-22-3.48-22-3.48S174.75,271.67,188.66,269.88Z" style="fill:#ffbda7"></path><path d="M209.49,275.06c3,.64,6.1,1.16,9.14,1.81a69.71,69.71,0,0,1,9,2.49,15.9,15.9,0,0,1,4.23,2.14c1.22,1,2.46,1.87,3.75,2.74,2.55,1.74,5.18,3.38,7.86,4.93,1.33.78,2.68,1.55,4,2.22l4.28,1.81,4.27,1.84a36.76,36.76,0,0,0,4.29,1.59c3,.26,6.22.33,9.23,1.25a8.47,8.47,0,0,1,2.16,1,4.08,4.08,0,0,1,1.5,1.84A2.24,2.24,0,0,1,273,303a2.83,2.83,0,0,1-2.12.89,2.72,2.72,0,0,0,2-1,2,2,0,0,0,.2-2.11,3.73,3.73,0,0,0-1.47-1.65,8.55,8.55,0,0,0-2.09-.87,24.81,24.81,0,0,0-4.55-.73c-1.55-.15-3.05-.12-4.67-.26a28.73,28.73,0,0,1-4.47-1.56l-4.3-1.8-4.32-1.79c-1.43-.68-2.78-1.44-4.14-2.22q-4-2.37-7.87-5c-1.28-.89-2.54-1.82-3.76-2.8a16.83,16.83,0,0,0-4-2.11C221.65,277.76,215.49,276.65,209.49,275.06Z" style="fill:#f0997a"></path><path d="M217.75,303.47s2.75,3.3,3.75,4.37,4.39,4.17,4.39,4.17h.25l.33.31c1.28.7,4.55,2.47,8.06,4.34C230.41,314.47,217.75,303.47,217.75,303.47Z" style="fill:#f0997a"></path><path d="M234.3,305.47a44,44,0,0,1,3.79,2.26c1.22.81,2.4,1.73,3.58,2.53l3.75,2.26c1.26.76,2.49,1.55,3.74,2.32l-.06,0c1.71.74,3.4,1.5,5.08,2.32a10,10,0,0,1,2.43,1.44,3.2,3.2,0,0,1,1.18,2.5,3.16,3.16,0,0,0-1.4-2.23,12.09,12.09,0,0,0-2.45-1.19l-5.16-2.06h0l0,0c-1.25-.77-2.51-1.51-3.75-2.29s-2.47-1.53-3.73-2.38S239,309,237.8,308.12,235.48,306.34,234.3,305.47Z" style="fill:#f0997a"></path><path d="M242.25,301.94l8.17,6.67a64.19,64.19,0,0,0,6.64,3.69s1.6.36,3.78,1,4.35.73,7.68,1.16c2.69.35,4.65.59,5.58-.23-2.37.3-9.65-1.54-12.1-2.1a50.27,50.27,0,0,1-9.6-3.77C250.66,307.34,242.25,301.94,242.25,301.94Z" style="fill:#f0997a"></path><path d="M260.54,304.49c-1.08-.43-2.17-.78-3.24-1.22a17.25,17.25,0,0,1-1.6-.7c-.55-.27-1-.6-1.53-.88a46.34,46.34,0,0,1-5.67-3.94,47.78,47.78,0,0,1,6.15,3.2c.5.31,1,.62,1.44.89s1,.53,1.5.81A19.63,19.63,0,0,1,260.54,304.49Z" style="fill:#f0997a"></path><path d="M213.37,285.59a13.42,13.42,0,0,1,2.71,3,14.41,14.41,0,0,1,1.76,3.64,21.29,21.29,0,0,1,.76,8,63.08,63.08,0,0,0-1.6-7.69A23.41,23.41,0,0,0,213.37,285.59Z" style="fill:#f0997a"></path></g><path d="M220.71,292.83a13.87,13.87,0,0,0,24.5,7.19A10.69,10.69,0,0,0,265,295.85c1.59,2.44,5.74,3.81,9.39,3.38s7.31-3.64,7.27-7.32c0-2.69-1-4.66-2-5.09a6.58,6.58,0,0,0,6.08-3.37c1.68-3.19,1-7,.14-8.32-2.61-3.95-5.5-4.91-10.24-4.74.8-4-.24-9.06-3.8-11.13a9.58,9.58,0,0,0-11.13.81,8,8,0,0,0-4.58-7,12.82,12.82,0,0,0-11.27,0,7.77,7.77,0,0,0-4.26,4.81c-2.6-5.72-11.6-2.44-10.63,3.48a12.59,12.59,0,0,0-9.56-4.47,9.26,9.26,0,0,0-7,3.5,11,11,0,0,0-2.61,6.53,12.71,12.71,0,0,0,1.67,6,11.14,11.14,0,0,0-8,5.24c-2.59,4.34-1.91,9.58,2.13,12.66S216.11,293.3,220.71,292.83Z" style="fill:#b16668"></path><path d="M249.14,306.25a2.35,2.35,0,0,0-.79.3,3.36,3.36,0,1,0-2.7,4,3.46,3.46,0,0,0,1.77-.91,2.38,2.38,0,1,0,1.72-3.4Z" style="fill:#b16668"></path><path d="M281.47,293.3c-1.56,3.19-5.08,3.7-7.91,3.52-4.47-.29-7.54-2.87-9.44-6.76.07,2-.06,9.28-7.6,11.06-5.79,1.36-10.85-4-11.08-7.75a11,11,0,0,1-13.69,3.24c-4.52-2.41-7.82-8.25-6-13-3.45,1.31-5.79,1.22-9.27,1.22s-7.22-1.15-9.2-4a6.6,6.6,0,0,1-1-4.94,10.84,10.84,0,0,0-1.84,2.26c-2.59,4.34-1.91,9.58,2.13,12.66s9.5,2.53,14.1,2.06a13.87,13.87,0,0,0,24.5,7.19A10.69,10.69,0,0,0,265,295.85c1.59,2.44,5.74,3.81,9.39,3.38C277.54,298.85,280.73,296.36,281.47,293.3Z" style="fill:#9a4a4d"></path><path d="M243,246.17c.15-2.54.1-7.31-4.58-9.93s-10.86-2.83-11.33-2.4.45,7.41,4.74,11.07C236.52,248.89,241.47,246.36,243,246.17Z" style="fill:#869ADC"></path><path d="M243,246.17c.15-2.54.1-7.31-4.58-9.93s-10.86-2.83-11.33-2.4.45,7.41,4.74,11.07C236.52,248.89,241.47,246.36,243,246.17Z" style="fill:#fff;opacity:0.2"></path><path d="M248.49,251.74a71.94,71.94,0,0,0-7.12-8.08,18.46,18.46,0,0,0-5.87-3.72c-.31-.1,0,.31.13.43a51.78,51.78,0,0,1,4.76,4,54.38,54.38,0,0,1,6.25,7.93,1.45,1.45,0,0,0,1.54.66A.77.77,0,0,0,248.49,251.74Z" style="fill:#37474f"></path><path d="M251.22,242.58c-4.27-4.35-7.73-12.64-1.2-21.42s20.6-15.06,21.84-14.65,3.12,16.9-3.2,28C262.47,245.45,254.24,241.64,251.22,242.58Z" style="fill:#869ADC"></path><path d="M251.22,242.58c-4.27-4.35-7.73-12.64-1.2-21.42s20.6-15.06,21.84-14.65,3.12,16.9-3.2,28C262.47,245.45,254.24,241.64,251.22,242.58Z" style="fill:#fff;opacity:0.4"></path><path d="M245.39,262.23c-.15-7,1.52-12.54,4.22-20.21a61.39,61.39,0,0,1,3.87-8.65c1.59-3,5-7.78,6.63-9,.12-.09,1-.43.83-.19a98.31,98.31,0,0,0-5.29,9.63,56.32,56.32,0,0,0-3.65,9.31,89.62,89.62,0,0,0-3.88,19.54C248,264,245.41,263.43,245.39,262.23Z" style="fill:#37474f"></path><path d="M258.76,260.65c-.39-.17-.76-.35-1.16-.5a10.37,10.37,0,0,0-1.36-.33,10.25,10.25,0,0,0-3.45,0,10.85,10.85,0,0,0-3.23,1.06,6.23,6.23,0,0,0-2.31,1.74,17.89,17.89,0,0,0-5.21-.94,17.51,17.51,0,0,0-4,.38,7.65,7.65,0,0,0-3.42,1.28c-.12.11,0,.46.15.45,1.31-.08,2.58-.49,3.9-.6a19.72,19.72,0,0,1,3.52.06,18.3,18.3,0,0,1,6.8,2.12c1,.56,2.15-1,1.07-1.59-.33-.17-.67-.3-1-.46a7,7,0,0,1,.57-.52c.27-.21.55-.42.84-.61a10.15,10.15,0,0,1,3.48-1.4,9.59,9.59,0,0,1,4.79.1C258.82,260.88,258.84,260.68,258.76,260.65Z" style="fill:#9a4a4d"></path></g></g></g></g><g id="freepik--speech-bubble--inject-137"><g id="freepik--speech-bubble--inject-137"><g id="freepik--speech-bubble--inject-137"><path d="M297.52,76.41a46.9,46.9,0,0,0-30.29,16.51L264,97.24a46.93,46.93,0,0,0,73.72,57.61l3.41-4.16a46.94,46.94,0,0,0-43.64-74.28Z" style="fill:#fff"></path><path d="M297,72.47a51,51,0,0,0-44.68,48.27l-13.95,7.47a3,3,0,0,0,.67,5.48l15.35,3.88A50.95,50.95,0,1,0,297,72.47Zm52.83,44.85a46.75,46.75,0,0,1-8.7,33.37l-3.41,4.16A46.93,46.93,0,0,1,264,97.24l3.2-4.32a46.94,46.94,0,0,1,82.63,24.4Z" style="fill:#e0e0e0"></path><path d="M297,72.47a51,51,0,0,0-44.68,48.27l-13.95,7.47a3,3,0,0,0,.67,5.48l15.35,3.88A50.95,50.95,0,1,0,297,72.47Zm52.83,44.85a46.75,46.75,0,0,1-8.7,33.37l-3.41,4.16A46.93,46.93,0,0,1,264,97.24l3.2-4.32a46.94,46.94,0,0,1,82.63,24.4Z" style="opacity:0.2"></path><path d="M349.86,117.32a46.75,46.75,0,0,1-8.7,33.37l-3.41,4.16A46.93,46.93,0,0,1,264,97.24l3.2-4.32a46.94,46.94,0,0,1,82.63,24.4Z" style="fill:#fff;opacity:0.7000000000000001"></path></g><path d="M308.52,121.17c-1-5.34,3.24-11.25,9.79-13.34s14.85.67,14.85.67a22.62,22.62,0,0,1-7.8,12.28C317.08,127.46,308.52,121.17,308.52,121.17Z" style="fill:#869ADC"></path><path d="M299,122.39c4.19-5.55,4-15.55-2.39-21.64S277.75,94,277.75,94a32.16,32.16,0,0,0,2.07,19.55C285.58,125.84,299,122.39,299,122.39Z" style="fill:#869ADC"></path><path d="M304,144.7l2.16.25-.47-3.33c-.43-2.73-1-5.45-1.61-8.13h0a28.4,28.4,0,0,1,.82-3.54,25.73,25.73,0,0,1,2.87-6.45,20.69,20.69,0,0,1,4.64-5.23,22.18,22.18,0,0,1,6.47-3.28c.12,0,.12-.37,0-.37a13.91,13.91,0,0,0-6.24,2.32,20.93,20.93,0,0,0-5.83,5.42,23.59,23.59,0,0,0-3.51,7.13c-.05.15-.09.3-.13.45-.37-1.26-.78-2.52-1.23-3.76-2.72-7.55-6.95-15.44-13.45-20.41-.32-.24-.72.46-.49.72a62.88,62.88,0,0,1,7.61,10.43c4.21,7.47,6.54,15.84,7.91,24.26C303.67,142.35,303.85,143.53,304,144.7Z" style="fill:#37474f"></path><path d="M318.61,150.82c-2.65,3.48-6.93,5.44-11.25,6.13-7.73,1.25-16.19-1.66-20.44-8.24a9.18,9.18,0,0,1-.64-9c1.22-2.28,3.69-4.34,6.75-3.89,2.88.42,5.32,2,8.23,2.09,3.73.1,7.16-2.27,10.88-2.34C320.51,135.39,323.13,144.9,318.61,150.82Z" style="fill:#455a64"></path><path d="M286.18,139.7c1.22-2.28,3.69-4.34,6.75-3.89a22.86,22.86,0,0,1,4,1.13,1.72,1.72,0,0,1-.73.32,7.65,7.65,0,0,0-4.4,2.24,6.15,6.15,0,0,0-.21,6.74,13.41,13.41,0,0,0,5.46,4.59,22.63,22.63,0,0,0,11.28,1.78,15,15,0,0,0,10.27-4.73,9.05,9.05,0,0,0,2.08-3.94,10.68,10.68,0,0,1-2.16,6.87c-2.65,3.48-6.93,5.44-11.25,6.13-7.73,1.24-16.19-1.66-20.44-8.24A9.18,9.18,0,0,1,286.18,139.7Z" style="fill:#37474f"></path><path d="M300.4,140.81a4.18,4.18,0,0,1-1.77-1.22,2.36,2.36,0,0,1-.57-1.83,2.07,2.07,0,0,1,.14-.42,11.51,11.51,0,0,0,3.06.57,17.71,17.71,0,0,0,5.94-1.26c.16-.06.22.92.21,1-.12,1.81-1.88,3.08-3.53,3.37a7.29,7.29,0,0,1-2.83,0A4.88,4.88,0,0,1,300.4,140.81Z" style="fill:#e0e0e0"></path></g></g></svg>